<?xml version="1.0" encoding="UTF-8"?>
<svg version="1.1" xmlns="http://www.w3.org/2000/svg" width="333" height="346">
<path d="M0 0 C28.32815976 25.36912921 46.39416947 60.41087875 48.96484375 98.546875 C50.78383479 131.99649231 42.23623894 164.07488611 22.96484375 191.546875 C22.41183594 192.34222656 21.85882813 193.13757813 21.2890625 193.95703125 C20.19979098 195.5004216 19.08666928 197.02698234 17.96484375 198.546875 C19.2520348 201.37602339 20.59356804 203.42216043 22.79794312 205.60702515 C23.37548843 206.18442947 23.95303375 206.7618338 24.54808044 207.35673523 C25.17980667 207.97812881 25.8115329 208.5995224 26.46240234 209.23974609 C27.12926559 209.90368881 27.79612885 210.56763153 28.48320007 211.25169373 C29.93077561 212.6916633 31.38065692 214.12931778 32.83256149 215.56492233 C35.13208973 217.8389121 37.42530242 220.1191013 39.71694946 222.40103149 C45.41122702 228.0685701 51.1162551 233.72524805 56.82098389 239.38226318 C61.63943218 244.16121308 66.45374562 248.94425644 71.26265335 253.73280716 C73.51864525 255.97586081 75.78059243 258.2127886 78.04281616 260.44955444 C79.43167302 261.83114287 80.82024796 263.21301477 82.20849609 264.59521484 C82.83617386 265.21255997 83.46385162 265.82990509 84.11054993 266.46595764 C90.1163983 272.47035403 94.08173203 277.54072347 94.21484375 286.359375 C94.1448136 292.81771124 92.88327424 296.31734768 88.65234375 301.234375 C82.77349872 306.29291607 78.05154269 306.93080973 70.4765625 307.23828125 C62.27936209 305.62437194 56.02012135 299.0384266 50.33374023 293.25634766 C49.63016891 292.55321442 48.9265976 291.85008118 48.20170593 291.12564087 C45.90592192 288.82778705 43.62091442 286.5195337 41.3359375 284.2109375 C39.73520119 282.60459881 38.13379593 280.99892649 36.53175354 279.39389038 C32.3379454 275.18868408 28.1532292 270.974544 23.97039795 266.75842285 C19.69214294 262.44935831 15.40527379 258.1488821 11.11914062 253.84765625 C2.72596407 245.42240433 -5.65762412 236.9876809 -14.03515625 228.546875 C-14.78177017 228.95534668 -15.52838409 229.36381836 -16.29762268 229.78466797 C-17.28165573 230.32236816 -18.26568878 230.86006836 -19.27954102 231.4140625 C-20.7397744 232.21239502 -20.7397744 232.21239502 -22.22950745 233.02685547 C-57.47308014 252.12080578 -97.2460206 257.06699013 -135.97265625 245.984375 C-151.86974291 241.11453143 -166.89069604 233.7442279 -180.03515625 223.546875 C-180.96199219 222.84046875 -181.88882813 222.1340625 -182.84375 221.40625 C-212.76340363 197.81004089 -230.58652568 165.37226612 -236.6171875 127.93359375 C-238.5950979 110.93352646 -238.22651956 92.17299273 -234.03515625 75.546875 C-233.83647949 74.75168457 -233.63780273 73.95649414 -233.43310547 73.13720703 C-223.70498142 35.47078514 -199.57835367 3.91336987 -166.20263672 -16.06054688 C-152.40890176 -24.02043339 -137.59411971 -29.23123767 -122.03515625 -32.453125 C-120.99230469 -32.67871094 -119.94945313 -32.90429688 -118.875 -33.13671875 C-76.77412828 -40.70131156 -32.09333813 -27.89370005 0 0 Z M-173.03515625 42.546875 C-191.82940541 66.28204157 -198.9652678 94.21404085 -195.74658203 124.23876953 C-194.08695258 135.35717299 -190.08472196 145.55935122 -185.03515625 155.546875 C-184.50019531 156.60519531 -183.96523437 157.66351563 -183.4140625 158.75390625 C-170.61878838 182.16588264 -148.6131774 198.62620563 -123.47265625 206.796875 C-105.43064649 211.93949061 -86.19368777 212.5526309 -68.03515625 207.546875 C-66.81828125 207.21816406 -65.60140625 206.88945312 -64.34765625 206.55078125 C-50.49726439 202.3812362 -37.73870861 195.30945572 -27.03515625 185.546875 C-26.28371338 184.8669751 -26.28371338 184.8669751 -25.51708984 184.17333984 C-7.91167524 168.04781599 2.16453727 148.82578062 6.96484375 125.546875 C7.15820312 124.61875 7.3515625 123.690625 7.55078125 122.734375 C11.0885704 95.5000736 3.95736361 67.62092958 -12.82421875 45.81640625 C-29.71343456 24.91078375 -54.02121545 9.69099211 -81.03515625 6.546875 C-117.01597186 3.86500359 -148.73881262 15.21834768 -173.03515625 42.546875 Z " fill="#5F3315" transform="translate(238.03515625,37.453125)"/>
</svg>
